PathFileType	4	(X/Y/Z)	s02c0103.trc
DataRate	CameraRate	NumFrames	NumMarkers	Units	OrigDataRate	OrigDataStartFrame	OrigNumFrames
200	200	6	50	mm	200	250	2000
Frame#	Time	racr			lacr			c7			jug			rlel			rdr			llel			ldr			s2			lic			ric			lasi			rasi			rpsi			lpsi			rgt			lgt			rth1			rth2			rth3			rth4			rlfc			rmfc			rsh1			rsh2			rsh3			rsh4			rlmal			rmmal			rtoe			rmt5			rmt1			lth1			lth2			lth4			lth3			llfc			lmfc			lsh1			lsh2			lsh3			lsh4			llmal			lmmal			lcal			ltoe			lmt5			SBIKE			LBIKE			RBIKE			
		X1	Y1	Z1	X2	Y2	Z2	X3	Y3	Z3	X4	Y4	Z4	X5	Y5	Z5	X6	Y6	Z6	X7	Y7	Z7	X8	Y8	Z8	X9	Y9	Z9	X10	Y10	Z10	X11	Y11	Z11	X12	Y12	Z12	X13	Y13	Z13	X14	Y14	Z14	X15	Y15	Z15	X16	Y16	Z16	X17	Y17	Z17	X18	Y18	Z18	X19	Y19	Z19	X20	Y20	Z20	X21	Y21	Z21	X22	Y22	Z22	X23	Y23	Z23	X24	Y24	Z24	X25	Y25	Z25	X26	Y26	Z26	X27	Y27	Z27	X28	Y28	Z28	X29	Y29	Z29	X30	Y30	Z30	X31	Y31	Z31	X32	Y32	Z32	X33	Y33	Z33	X34	Y34	Z34	X35	Y35	Z35	X36	Y36	Z36	X37	Y37	Z37	X38	Y38	Z38	X39	Y39	Z39	X40	Y40	Z40	X41	Y41	Z41	X42	Y42	Z42	X43	Y43	Z43	X44	Y44	Z44	X45	Y45	Z45	X46	Y46	Z46	X47	Y47	Z47	X48	Y48	Z48	X49	Y49	Z49	X50	Y50	Z50	
250	1.2500	479.814600	1280.888780	-138.243902	502.772248	1288.813860	-477.681814	511.358030	1300.952607	-313.571575	442.767219	1183.194280	-312.666080	586.934975	1032.170836	-117.520096	708.994606	835.671626	-143.715298	575.202812	1023.350812	-532.591450	705.942359	830.866909	-487.730916	-7.696414	1124.047700	-333.797712	0.000000	0.000000	-0.000000	114.037637	1110.703239	-186.523166	178.151261	1056.231054	-443.943844	164.434455	1087.698147	-217.410551	5.040123	1149.207081	-294.091235	21.693060	1150.203122	-382.116597	82.533457	1048.119724	-142.396844	75.117912	1004.105418	-504.233782	170.511813	1023.282657	-141.044532	257.651455	1012.795704	-148.161034	329.147907	972.254629	-122.727898	268.121216	1035.000703	-176.671176	451.091506	882.548730	-153.105148	446.357951	862.495563	-265.425870	437.015109	769.911283	-137.735874	421.145433	683.552044	-157.030884	372.101740	613.411778	-150.566855	435.314652	680.839832	-193.533547	315.946059	507.195536	-156.377660	323.005450	528.526311	-236.632769	528.558858	459.857440	-193.180715	420.333871	438.249027	-136.243016	447.766183	454.228597	-244.315496	176.111841	900.315216	-512.338734	240.098071	841.857236	-505.311622	267.369377	860.244286	-489.534430	265.733493	756.491242	-502.239603	313.671804	669.509611	-474.766093	308.130677	643.111469	-370.764004	268.547703	575.271162	-497.080233	238.411029	495.753170	-480.759435	171.710741	435.501162	-488.425628	252.414745	488.943426	-443.035261	94.760591	360.105334	-474.770789	110.320291	351.576302	-398.619861	15.855191	338.009039	-433.628024	265.785499	198.084790	-446.216216	158.991051	224.491773	-503.284814	-129.427533	869.141813	-314.836974	32.809488	82.045859	-515.205198	32.870698	81.995385	-115.276424	
251	1.2550	479.793425	1280.883231	-138.236343	502.772021	1288.836489	-477.662599	511.347767	1300.891750	-313.551207	442.735769	1183.166282	-312.727027	586.971549	1032.178296	-117.546446	709.020180	835.671625	-143.694357	575.208447	1023.368714	-532.638229	705.924047	830.877589	-487.752061	-7.755900	1124.086220	-333.789928	0.000000	0.000000	-0.000000	113.978245	1110.682844	-186.552256	178.109549	1056.224270	-443.979769	164.385147	1087.707418	-217.453172	5.002591	1149.245784	-294.090420	21.668611	1150.220392	-382.123950	82.479631	1048.153397	-142.412918	75.095748	1004.128572	-504.259304	170.445275	1023.312141	-141.079015	257.587379	1012.864498	-148.230049	329.065650	972.348361	-122.778881	268.029448	1035.069667	-176.713810	451.021770	882.657423	-153.141318	446.312239	862.567126	-265.485349	437.003872	770.014419	-137.737470	421.179936	683.655052	-157.047147	372.176948	613.461286	-150.572890	435.339873	680.886565	-193.549848	316.059157	507.220497	-156.377891	323.111085	528.535693	-236.627794	528.637124	459.774915	-193.191804	420.402618	438.220334	-136.250799	447.850485	454.163886	-244.306574	176.110930	900.342548	-512.382028	240.139822	841.916685	-505.395399	267.383018	860.303823	-489.594187	265.787953	756.538466	-502.311390	313.766698	669.595650	-474.852307	308.224597	643.172579	-370.825332	268.645077	575.332888	-497.140925	238.522653	495.832699	-480.790772	171.803260	435.567431	-488.458819	252.488200	489.013214	-443.039383	94.854667	360.228752	-474.766801	110.387859	351.671245	-398.636969	15.941320	338.162628	-433.611258	265.761443	198.042229	-446.223722	158.991221	224.536785	-503.281394	-129.433998	869.145678	-314.827764	32.805630	82.047929	-515.188335	32.867110	82.076414	-115.344831	
252	1.2600	479.781062	1280.888110	-138.264684	502.768465	1288.823198	-477.618992	511.352263	1300.819347	-313.539047	442.739194	1183.102817	-312.725709	586.960414	1032.183825	-117.598350	709.014581	835.691416	-143.713555	575.213309	1023.370281	-532.682417	705.935155	830.884056	-487.731339	-7.813024	1124.116384	-333.802570	0.000000	0.000000	-0.000000	113.894526	1110.731689	-186.522330	178.083184	1056.226607	-443.991797	164.328942	1087.702254	-217.443464	4.964965	1149.258788	-294.097011	21.604888	1150.241546	-382.119823	82.419789	1048.187661	-142.389361	75.067837	1004.128524	-504.292692	170.373868	1023.369866	-141.094642	257.523991	1012.909932	-148.276174	328.996376	972.451076	-122.842500	267.966711	1035.125548	-176.772804	450.998231	882.728912	-153.202348	446.263957	862.609235	-265.527885	436.995513	770.074842	-137.765621	421.207963	683.692963	-157.053141	372.233482	613.484341	-150.574822	435.388577	680.966299	-193.568276	316.212863	507.235378	-156.375705	323.294878	528.595917	-236.664813	528.748691	459.640124	-193.184309	420.501699	438.158928	-136.258303	447.956248	454.072329	-244.317474	176.127768	900.362621	-512.466739	240.164677	841.959208	-505.474424	267.412292	860.337673	-489.673846	265.849227	756.574562	-502.371542	313.847180	669.655866	-474.932218	308.361417	643.216044	-370.908245	268.740122	575.414347	-497.185471	238.581074	495.898042	-480.804185	171.868040	435.654849	-488.474525	252.552823	489.088664	-443.055593	94.938454	360.370359	-474.780124	110.480862	351.775738	-398.626427	16.013950	338.364168	-433.607550	265.712611	198.023717	-446.230976	158.964401	224.606029	-503.291988	-129.436842	869.151195	-314.831999	32.808675	82.060159	-515.205804	32.861309	81.989491	-115.272460	
253	1.2650	479.751428	1280.874865	-138.257747	502.765113	1288.822439	-477.608060	511.355338	1300.755715	-313.528844	442.705288	1183.064123	-312.725410	586.956799	1032.171789	-117.648624	709.003632	835.678087	-143.702234	575.213006	1023.368270	-532.730984	705.918622	830.863681	-487.751129	-7.857568	1124.122041	-333.839678	0.000000	0.000000	-0.000000	113.844902	1110.719801	-186.541706	178.033601	1056.217476	-444.002972	164.277603	1087.691931	-217.451363	4.927095	1149.253438	-294.136522	21.562396	1150.231923	-382.145431	82.368702	1048.208526	-142.418334	75.080771	1004.089597	-504.298234	170.347018	1023.425028	-141.124142	257.443438	1012.945224	-148.344599	328.944800	972.496149	-122.916156	267.937426	1035.176430	-176.831102	450.975314	882.781614	-153.240926	446.224470	862.650678	-265.576809	436.987530	770.152487	-137.799618	421.267569	683.742312	-157.077350	372.278121	613.505328	-150.589802	435.441132	681.003166	-193.602981	316.141035	507.505257	-156.049298	323.420213	528.570161	-236.636783	528.900133	459.487927	-193.195369	420.614592	438.064767	-136.270402	448.062715	453.950137	-244.334888	176.123947	900.366812	-512.518015	240.199645	841.986668	-505.558931	267.440918	860.379146	-489.747341	265.911347	756.615074	-502.443185	313.942885	669.706555	-474.984711	308.485464	643.299681	-370.983035	268.819395	575.494897	-497.257186	238.647296	495.981120	-480.834606	171.923939	435.779754	-488.464416	252.628687	489.162815	-443.112329	94.990222	360.538249	-474.771698	110.522518	351.923278	-398.617399	16.056115	338.558474	-433.589961	265.648910	198.027520	-446.214856	158.913443	224.715768	-503.271228	-129.442567	869.141771	-314.834797	32.826331	82.052285	-515.211139	32.874359	82.078882	-115.331282	
254	1.2700	479.725949	1280.863822	-138.278189	502.751945	1288.823034	-477.581886	511.349867	1300.691228	-313.518802	442.691718	1183.029499	-312.748337	586.937870	1032.175260	-117.684510	709.006994	835.709341	-143.729806	575.201976	1023.369203	-532.763857	705.913926	830.867346	-487.757773	-7.895606	1124.118394	-333.893852	0.000000	0.000000	-0.000000	113.786546	1110.724380	-186.562507	178.007054	1056.207119	-444.014705	164.219005	1087.714340	-217.429346	4.888196	1149.247216	-294.206048	21.511786	1150.215581	-382.199629	82.317447	1048.216635	-142.440282	75.069388	1004.075079	-504.325170	170.305984	1023.448690	-141.140379	257.428321	1012.961357	-148.412240	328.917201	972.529277	-122.966607	267.892348	1035.194432	-176.908355	450.928174	882.826269	-153.299516	446.201281	862.651050	-265.604184	437.007424	770.167832	-137.838580	421.300377	683.748569	-157.087748	372.418171	613.459865	-150.602824	435.515798	681.013958	-193.597335	316.310568	507.449331	-156.040909	323.555935	528.526901	-236.635152	529.042721	459.315191	-193.206631	420.745486	437.977223	-136.286684	448.181226	453.870290	-244.343377	176.137757	900.373939	-512.568587	240.233407	842.028470	-505.650541	267.483310	860.418333	-489.844894	265.986231	756.636827	-502.503331	314.003918	669.701460	-475.120831	308.579144	643.364395	-370.995072	268.925053	575.625448	-497.299477	238.701301	496.076179	-480.838503	171.962663	435.919480	-488.472964	252.704255	489.291657	-443.123119	95.028509	360.703155	-474.744968	110.577617	352.053890	-398.603792	16.089106	338.786295	-433.585678	265.580649	198.063550	-446.210880	158.850950	224.839011	-503.259274	-129.448788	869.141562	-314.837793	32.812945	82.049904	-515.195497	32.489959	82.224031	-115.495571	
255	1.2750	479.668451	1280.848348	-138.288942	502.744377	1288.797766	-477.539787	511.344910	1300.659906	-313.526969	442.659342	1182.971828	-312.740530	586.885175	1032.165595	-117.700842	708.999525	835.723354	-143.711627	575.200077	1023.360958	-532.785438	705.890388	830.860838	-487.783147	-7.928232	1124.098866	-333.963378	0.000000	0.000000	-0.000000	113.720681	1110.746145	-186.572329	177.983070	1056.178178	-444.001912	164.170772	1087.695955	-217.437919	4.858218	1149.213955	-294.282527	21.426224	1150.209411	-382.207188	82.291807	1048.301479	-142.509575	75.054164	1004.034102	-504.369635	170.274788	1023.450011	-141.184829	257.395835	1012.973396	-148.473406	328.903846	972.533838	-123.031476	267.861566	1035.161609	-176.962704	450.896045	882.832195	-153.333729	446.173480	862.641439	-265.670238	436.999400	770.163777	-137.869628	421.359938	683.749934	-157.099238	372.446340	613.556540	-150.659323	435.565534	680.991033	-193.615470	316.459667	507.384964	-156.024058	323.686295	528.478645	-236.611609	529.179799	459.143964	-193.226799	420.879625	437.856092	-136.301359	448.294715	453.728693	-244.321877	176.138869	900.372748	-512.642017	240.393384	842.258982	-506.169802	267.474105	860.439949	-489.829833	266.055425	756.692468	-502.589818	314.094580	669.810273	-475.192130	308.733213	643.477594	-371.060433	269.014969	575.745446	-497.334182	238.782042	496.207158	-480.863275	172.014726	436.031654	-488.484441	252.778839	489.396354	-443.155573	95.056530	360.877639	-474.715362	110.617649	352.205803	-398.590240	16.131937	339.012823	-433.582630	265.495904	198.095258	-446.210873	158.775101	224.992429	-503.251618	-129.441308	869.139528	-314.840007	32.817432	82.043920	-515.200978	32.887745	82.073104	-115.348173	
